<?xml version="1.0" encoding="utf-8"?>
<!-- Generator: Adobe Illustrator 22.0.1, SVG Export Plug-In . SVG Version: 6.00 Build 0)  -->
<svg version="1.1" id="圖層_1" xmlns="http://www.w3.org/2000/svg" xmlns:xlink="http://www.w3.org/1999/xlink" x="0px" y="0px"
	 viewBox="0 0 35 35" style="enable-background:new 0 0 35 35;" xml:space="preserve">
<style type="text/css">
	.st0{fill:#FFFFFF;}
	.st1{fill:#C0D2DD;}
</style>
<polygon class="st0" points="35,35 35,35 0,35 0,0 35,0 "/>
<g>
	<path d="M30.5,6.2h-7.9c-0.4,0-0.8,0.2-1,0.6l-7,14.4h9.8l6.8-14C31.4,6.7,31,6.2,30.5,6.2z"/>
	<path class="st1" d="M14.6,21.2l4.8,7.7c0.3,0.5,1,0.4,1.3-0.1l3.7-7.6H14.6z"/>
	<path d="M17.3,28.1l-4.1-6.5c-0.1-0.2-0.4-0.3-0.6-0.3H4.5c-0.6,0-0.9,0.6-0.6,1.1L8,28.9c0.1,0.2,0.4,0.3,0.6,0.3h8.1
		C17.3,29.2,17.6,28.6,17.3,28.1z"/>
</g>
</svg>
